# xmcd
#
# Track frame offsets: 
#        150
#        14393
#        28688
#        43575
#        59383
#        79600
#        92689
#        107919
#        122962
#        135612
#        148719
#        164505
#        180592
#        194372
#        208857
#        221757
#        236095
#
# Disc length: 3315 seconds
#
# Revision: 0
# Processed by: cddbd v1.5.2PL0 Copyright (c) Steve Scherf et al.
# Submitted via: ExactAudioCopy v0.99pb3
#
DISCID=fb0cf111
DTITLE=Toussaint, Allen - What Is Success: The Scepter And Bell Record
DTITLE=ings
DYEAR=2007
DGENRE=R&B/Soul
TTITLE0=Everything I Do Gonh Be Funky
TTITLE1=Get Out Of My Life, Woman
TTITLE2=Sweet Touch Of Love
TTITLE3=From A Whisper To A Scream
TTITLE4=Pickles
TTITLE5=Gotta Travel On
TTITLE6=The Chokin' Kind
TTITLE7=Cast Your Fate To The Wind
TTITLE8=We The People
TTITLE9=Either
TTITLE10=Number Nine
TTITLE11=What Is Success
TTITLE12=Louie
TTITLE13=Working In The Coalmine
TTITLE14=I've Got That Feelin' Now
TTITLE15=Tequila
TTITLE16=Hands Christianderson
EXTD=
EXTT0=
EXTT1=
EXTT2=
EXTT3=
EXTT4=
EXTT5=
EXTT6=
EXTT7=
EXTT8=
EXTT9=
EXTT10=
EXTT11=
EXTT12=
EXTT13=
EXTT14=
EXTT15=
EXTT16=
PLAYORDER=
